<?xml version="1.0" encoding="UTF-8" standalone="no"?>
<!-- Created with Inkscape (http://www.inkscape.org/) -->

<svg
   width="171.53654mm"
   height="171.53644mm"
   viewBox="0 0 171.53654 171.53644"
   version="1.1"
   id="svg1"
   xml:space="preserve"
   xmlns:xlink="http://www.w3.org/1999/xlink"
   xmlns="http://www.w3.org/2000/svg"
   xmlns:svg="http://www.w3.org/2000/svg"><defs
     id="defs1"><linearGradient
       id="linearGradient65"><stop
         style="stop-color:#c08e35;stop-opacity:1;"
         offset="0"
         id="stop65" /><stop
         style="stop-color:#f8f79b;stop-opacity:1;"
         offset="0.5"
         id="stop67" /><stop
         style="stop-color:#c08e35;stop-opacity:1;"
         offset="1"
         id="stop66" /></linearGradient><linearGradient
       id="linearGradient50"><stop
         style="stop-color:#b58025;stop-opacity:1;"
         offset="0"
         id="stop51" /><stop
         style="stop-color:#ecd98b;stop-opacity:1;"
         offset="0.5"
         id="stop53" /><stop
         style="stop-color:#b58025;stop-opacity:1;"
         offset="1"
         id="stop52" /></linearGradient><linearGradient
       id="linearGradient47"><stop
         style="stop-color:#b58025;stop-opacity:1;"
         offset="0"
         id="stop48" /><stop
         style="stop-color:#ecd98b;stop-opacity:1;"
         offset="0.5"
         id="stop50" /><stop
         style="stop-color:#b58025;stop-opacity:1;"
         offset="1"
         id="stop49" /></linearGradient><linearGradient
       id="linearGradient44"><stop
         style="stop-color:#b58025;stop-opacity:1;"
         offset="0"
         id="stop45" /><stop
         style="stop-color:#ecd98b;stop-opacity:1;"
         offset="0.5"
         id="stop47" /><stop
         style="stop-color:#b58025;stop-opacity:1;"
         offset="1"
         id="stop46" /></linearGradient><linearGradient
       id="linearGradient42"><stop
         style="stop-color:#b58025;stop-opacity:1;"
         offset="0"
         id="stop42" /><stop
         style="stop-color:#ecd98b;stop-opacity:1;"
         offset="0.5"
         id="stop44" /><stop
         style="stop-color:#b58025;stop-opacity:1;"
         offset="1"
         id="stop43" /></linearGradient><linearGradient
       id="linearGradient38"><stop
         style="stop-color:#b58025;stop-opacity:1;"
         offset="0"
         id="stop39" /><stop
         style="stop-color:#ecd98b;stop-opacity:1;"
         offset="0.5"
         id="stop41" /><stop
         style="stop-color:#b58025;stop-opacity:1;"
         offset="1"
         id="stop40" /></linearGradient><linearGradient
       id="linearGradient35"><stop
         style="stop-color:#cdcdcd;stop-opacity:1;"
         offset="0"
         id="stop36" /><stop
         style="stop-color:#fafafa;stop-opacity:1;"
         offset="0.5"
         id="stop38" /><stop
         style="stop-color:#cdcdcd;stop-opacity:1;"
         offset="1"
         id="stop37" /></linearGradient><linearGradient
       id="linearGradient32"><stop
         style="stop-color:#cdcdcd;stop-opacity:1;"
         offset="0"
         id="stop33" /><stop
         style="stop-color:#fafafa;stop-opacity:1;"
         offset="0.5"
         id="stop35" /><stop
         style="stop-color:#cdcdcd;stop-opacity:1;"
         offset="1"
         id="stop34" /></linearGradient><linearGradient
       id="linearGradient29"><stop
         style="stop-color:#cdcdcd;stop-opacity:1;"
         offset="0"
         id="stop30" /><stop
         style="stop-color:#fafafa;stop-opacity:1;"
         offset="0.5"
         id="stop32" /><stop
         style="stop-color:#cdcdcd;stop-opacity:1;"
         offset="1"
         id="stop31" /></linearGradient><linearGradient
       id="linearGradient26"><stop
         style="stop-color:#cdcdcd;stop-opacity:1;"
         offset="0"
         id="stop27" /><stop
         style="stop-color:#fafafa;stop-opacity:1;"
         offset="0.5"
         id="stop29" /><stop
         style="stop-color:#cdcdcd;stop-opacity:1;"
         offset="1"
         id="stop28" /></linearGradient><linearGradient
       id="linearGradient21"><stop
         style="stop-color:#ededed;stop-opacity:1;"
         offset="0"
         id="stop21" /><stop
         style="stop-color:#cdcdcd;stop-opacity:1;"
         offset="1"
         id="stop22" /></linearGradient><filter
       style="color-interpolation-filters:sRGB"
       id="filter106"
       x="-0.020279993"
       y="-0.020280009"
       width="1.04056"
       height="1.04056"><feGaussianBlur
         stdDeviation="1.3242634"
         id="feGaussianBlur106" /></filter><filter
       style="color-interpolation-filters:sRGB"
       id="filter406"
       x="-0.058824694"
       y="-0.043030883"
       width="1.1176494"
       height="1.0860618"><feGaussianBlur
         stdDeviation="1.2907961"
         id="feGaussianBlur406" /></filter><filter
       style="color-interpolation-filters:sRGB"
       id="filter407"
       x="-0.047279093"
       y="-0.047279129"
       width="1.0945582"
       height="1.0945583"><feGaussianBlur
         stdDeviation="3.0872778"
         id="feGaussianBlur407" /></filter><linearGradient
       xlink:href="#linearGradient21"
       id="linearGradient431"
       gradientUnits="userSpaceOnUse"
       x1="94.783607"
       y1="113.58795"
       x2="94.783607"
       y2="136.12695" /><linearGradient
       xlink:href="#linearGradient29"
       id="linearGradient432"
       gradientUnits="userSpaceOnUse"
       x1="100.34458"
       y1="97.303856"
       x2="117.53682"
       y2="97.303856" /><linearGradient
       xlink:href="#linearGradient42"
       id="linearGradient433"
       gradientUnits="userSpaceOnUse"
       x1="105.93524"
       y1="97.481796"
       x2="120.23891"
       y2="97.481796" /><linearGradient
       xlink:href="#linearGradient26"
       id="linearGradient434"
       gradientUnits="userSpaceOnUse"
       x1="97.982346"
       y1="108.30067"
       x2="134.09894"
       y2="108.30067" /><linearGradient
       xlink:href="#linearGradient38"
       id="linearGradient435"
       gradientUnits="userSpaceOnUse"
       x1="102.60014"
       y1="107.46127"
       x2="136.7964"
       y2="107.46127" /><linearGradient
       xlink:href="#linearGradient32"
       id="linearGradient436"
       gradientUnits="userSpaceOnUse"
       x1="112.75511"
       y1="110.23754"
       x2="135.31738"
       y2="110.23754"
       spreadMethod="pad" /><linearGradient
       xlink:href="#linearGradient44"
       id="linearGradient437"
       gradientUnits="userSpaceOnUse"
       x1="106.69796"
       y1="118.15825"
       x2="133.14964"
       y2="118.15825" /><linearGradient
       xlink:href="#linearGradient35"
       id="linearGradient438"
       gradientUnits="userSpaceOnUse"
       x1="104.32447"
       y1="127.34879"
       x2="125.04373"
       y2="127.34879" /><linearGradient
       xlink:href="#linearGradient47"
       id="linearGradient439"
       gradientUnits="userSpaceOnUse"
       x1="101.81049"
       y1="138.07373"
       x2="124.10415"
       y2="138.07373" /><linearGradient
       xlink:href="#linearGradient50"
       id="linearGradient440"
       gradientUnits="userSpaceOnUse"
       x1="103.37353"
       y1="144.23503"
       x2="123.32049"
       y2="144.23503" /><linearGradient
       xlink:href="#linearGradient65"
       id="linearGradient441"
       gradientUnits="userSpaceOnUse"
       gradientTransform="translate(893.66933,1104.2005)"
       x1="170.16035"
       y1="92.045601"
       x2="38.488949"
       y2="177.554" /></defs><g
     id="layer1"
     transform="translate(-1387.1271,-1153.1074)"><g
       id="g441"><g
         id="g410"
         transform="translate(474.90133,-0.12472701)"><path
           id="path408"
           style="opacity:0.444724;fill:#000000;fill-opacity:1;stroke:none;stroke-width:0.282526;stroke-opacity:1;filter:url(#filter407)"
           d="M 997.99371,1160.6415 A 78.358734,78.358734 0 0 0 919.63518,1239 a 78.358734,78.358734 0 0 0 78.35853,78.359 78.358734,78.358734 0 0 0 78.35909,-78.359 78.358734,78.358734 0 0 0 -78.35909,-78.3585 z m 0,3.4938 A 74.865036,74.865036 0 0 1 1072.8589,1239 74.865036,74.865036 0 0 1 997.99371,1313.8652 74.865036,74.865036 0 0 1 923.12851,1239 a 74.865036,74.865036 0 0 1 74.8652,-74.8647 z" /><path
           id="path409"
           style="opacity:0.97;mix-blend-mode:normal;fill:#c08e35;fill-opacity:1;stroke:none;stroke-width:0.282526;stroke-opacity:1;filter:url(#filter106)"
           d="M 997.99371,1160.6415 A 78.358734,78.358734 0 0 0 919.63518,1239 a 78.358734,78.358734 0 0 0 78.35853,78.359 78.358734,78.358734 0 0 0 78.35909,-78.359 78.358734,78.358734 0 0 0 -78.35909,-78.3585 z m 0,3.4938 A 74.865036,74.865036 0 0 1 1072.8589,1239 74.865036,74.865036 0 0 1 997.99371,1313.8652 74.865036,74.865036 0 0 1 923.12851,1239 a 74.865036,74.865036 0 0 1 74.8652,-74.8647 z" /><path
           id="path410"
           style="fill:url(#linearGradient441);fill-opacity:1;stroke:none;stroke-width:0.282526;stroke-opacity:1"
           d="M 997.99371,1160.6415 A 78.358734,78.358734 0 0 0 919.63518,1239 a 78.358734,78.358734 0 0 0 78.35853,78.359 78.358734,78.358734 0 0 0 78.35909,-78.359 78.358734,78.358734 0 0 0 -78.35909,-78.3585 z m 0,3.4938 A 74.865036,74.865036 0 0 1 1072.8589,1239 74.865036,74.865036 0 0 1 997.99371,1313.8652 74.865036,74.865036 0 0 1 923.12851,1239 a 74.865036,74.865036 0 0 1 74.8652,-74.8647 z" /></g><g
         id="g431"
         transform="translate(474.90133,-0.12472701)"><g
           id="g420"
           transform="matrix(1.4666924,0,0,1.4666924,833.85473,1066.1666)"
           style="opacity:0.424623;mix-blend-mode:normal;fill:#000000;fill-opacity:1;filter:url(#filter406)"><path
             style="fill:#000000;fill-opacity:1;stroke:none;stroke-width:0.264583;stroke-opacity:1"
             d="m 84.000889,112.27287 c 1.588178,-0.85257 3.057183,-1.72217 3.650737,-2.71683 4.872886,-3.58251 7.978572,0.91362 10.986167,5.85816 0.834389,1.07664 1.049404,1.31848 1.137674,1.25653 -5.782732,8.58705 -4.041675,16.84016 6.196473,24.79329 -7.049222,-3.50365 -15.134451,-4.97216 -15.943091,-18.69741 0.390544,-6.80339 -1.618776,-10.3013 -6.02796,-10.49374 z"
             id="path411" /><path
             style="fill:#000000;fill-opacity:1;stroke:none;stroke-width:0.264583;stroke-opacity:1"
             d="m 100.56889,114.97704 c -0.24361,-4.63137 -0.579251,-9.22273 7.30012,-17.385839 5.88293,-6.474956 8.46039,-12.542388 7.73238,-18.202296 4.42812,7.864628 0.0918,15.294655 -6.33959,22.620795 -1.96392,2.76711 -4.11369,4.66695 -5.57115,9.79754 z"
             id="path412" /><path
             style="fill:#000000;fill-opacity:1;stroke:none;stroke-width:0.264583;stroke-opacity:1"
             d="m 106.05287,109.59 c 1.6479,-3.20246 3.89239,-6.74697 7.13693,-9.916416 3.40003,-4.061817 5.47368,-8.376675 5.26385,-14.365222 0.98767,3.072514 5.39767,9.888969 -6.11286,19.595118 -2.2081,1.26081 -4.16406,3.08875 -6.28792,4.68652 z"
             id="path413" /><path
             style="fill:#000000;fill-opacity:1;stroke:none;stroke-width:0.264583;stroke-opacity:1"
             d="m 101.33732,134.7162 c -10.880319,-13.37837 8.76554,-27.26103 14.98448,-31.45779 14.5677,-10.154418 16.62275,-16.063476 17.04964,-21.420119 2.97306,10.321791 -5.56995,19.101249 -16.80951,27.519569 -9.3637,6.9015 -17.702586,14.17368 -15.22461,25.35834 z"
             id="path414" /><path
             style="fill:#000000;fill-opacity:1;stroke:none;stroke-width:0.264583;stroke-opacity:1"
             d="m 102.73011,128.42464 c 1.13717,-5.99134 6.21144,-12.6942 17.96216,-20.60365 9.60994,-6.80377 14.59687,-13.563644 15.08635,-21.391485 -0.11532,1.379574 6.93924,11.642079 -16.95941,27.394875 -14.78988,10.13326 -13.25776,10.82745 -16.0891,14.60026 z"
             id="path415" /><path
             style="fill:#000000;fill-opacity:1;stroke:none;stroke-width:0.264583;stroke-opacity:1"
             d="m 112.83983,119.70771 c 4.62616,-3.85775 9.01998,-6.69323 13.32754,-9.14917 4.76471,-2.83296 7.53582,-6.00446 8.90903,-9.41333 1.25746,8.715 -8.49055,14.61047 -22.23657,18.5625 z"
             id="path416" /><path
             style="fill:#000000;fill-opacity:1;stroke:none;stroke-width:0.264583;stroke-opacity:1"
             d="m 106.98051,124.41437 c 2.34752,-2.12219 5.18096,-3.22396 8.16462,-4.01026 12.18792,-2.55261 14.77038,-5.75866 17.81808,-8.93306 -1.04397,7.60193 -10.47277,16.12477 -25.9827,12.94332 z"
             id="path417" /><path
             style="fill:#000000;fill-opacity:1;stroke:none;stroke-width:0.264583;stroke-opacity:1"
             d="m 106.11602,125.42294 c 6.58033,2.52231 12.71627,1.44513 18.65856,-1.20067 -2.63768,5.66496 -12.38986,9.13356 -20.26747,3.55401 z"
             id="path418" /><path
             style="fill:#000000;fill-opacity:1;stroke:none;stroke-width:0.264583;stroke-opacity:1"
             d="m 102.34589,129.28913 c 1.81295,3.65677 5.55167,5.97237 10.95019,7.13204 10.18534,3.45672 10.79414,7.08862 10.66204,10.73407 -1.90772,-4.50399 -4.73912,-5.31328 -7.51626,-6.33959 -11.77,-3.07536 -15.89312,-6.03616 -14.09597,-11.52652 z"
             id="path419" /><path
             style="fill:#000000;fill-opacity:1;stroke:none;stroke-width:0.264583;stroke-opacity:1"
             d="m 103.47453,137.14157 c 3.39378,1.65594 4.27135,2.45994 10.63802,4.39448 3.92167,1.7839 8.06936,3.16386 9.07713,9.84558 -1.6931,-2.95566 -4.12742,-5.14364 -7.6123,-6.24353 -9.39613,-3.93925 -9.95458,-5.45675 -12.10285,-7.99653 z"
             id="path420" /></g><g
           id="g430"
           transform="matrix(1.4159304,0,0,1.4159304,839.46518,1071.9277)"><path
             style="fill:url(#linearGradient431);fill-opacity:1;stroke:none;stroke-width:0.264583;stroke-opacity:1"
             d="m 84.000889,112.27287 c 1.588178,-0.85257 3.057183,-1.72217 3.650737,-2.71683 4.872886,-3.58251 7.978572,0.91362 10.986167,5.85816 0.834389,1.07664 1.049404,1.31848 1.137674,1.25653 -5.782732,8.58705 -4.041675,16.84016 6.196473,24.79329 -7.049222,-3.50365 -15.134451,-4.97216 -15.943091,-18.69741 0.390544,-6.80339 -1.618776,-10.3013 -6.02796,-10.49374 z"
             id="path421" /><path
             style="fill:url(#linearGradient432);fill-opacity:1;stroke:none;stroke-width:0.264583;stroke-opacity:1"
             d="m 100.56889,114.97704 c -0.24361,-4.63137 -0.579251,-9.22273 7.30012,-17.385839 5.88293,-6.474956 8.46039,-12.542388 7.73238,-18.202296 4.42812,7.864628 0.0918,15.294655 -6.33959,22.620795 -1.96392,2.76711 -4.11369,4.66695 -5.57115,9.79754 z"
             id="path422" /><path
             style="fill:url(#linearGradient433);stroke:none;stroke-width:0.264583;stroke-opacity:1"
             d="m 106.05287,109.59 c 1.6479,-3.20246 3.89239,-6.74697 7.13693,-9.916416 3.40003,-4.061817 5.47368,-8.376675 5.26385,-14.365222 0.98767,3.072514 5.39767,9.888969 -6.11286,19.595118 -2.2081,1.26081 -4.16406,3.08875 -6.28792,4.68652 z"
             id="path423" /><path
             style="fill:url(#linearGradient434);fill-opacity:1;stroke:none;stroke-width:0.264583;stroke-opacity:1"
             d="m 101.33732,134.7162 c -10.880319,-13.37837 8.76554,-27.26103 14.98448,-31.45779 14.5677,-10.154418 16.62275,-16.063476 17.04964,-21.420119 2.97306,10.321791 -5.56995,19.101249 -16.80951,27.519569 -9.3637,6.9015 -17.702586,14.17368 -15.22461,25.35834 z"
             id="path424" /><path
             style="fill:url(#linearGradient435);stroke:none;stroke-width:0.264583;stroke-opacity:1"
             d="m 102.73011,128.42464 c 1.13717,-5.99134 6.21144,-12.6942 17.96216,-20.60365 9.60994,-6.80377 14.59687,-13.563644 15.08635,-21.391485 -0.11532,1.379574 6.93924,11.642079 -16.95941,27.394875 -14.78988,10.13326 -13.25776,10.82745 -16.0891,14.60026 z"
             id="path425" /><path
             style="fill:url(#linearGradient436);fill-opacity:1;stroke:none;stroke-width:0.264583;stroke-opacity:1"
             d="m 112.83983,119.70771 c 4.62616,-3.85775 9.01998,-6.69323 13.32754,-9.14917 4.76471,-2.83296 7.53582,-6.00446 8.90903,-9.41333 1.25746,8.715 -8.49055,14.61047 -22.23657,18.5625 z"
             id="path426" /><path
             style="fill:url(#linearGradient437);stroke:none;stroke-width:0.264583;stroke-opacity:1"
             d="m 106.98051,124.41437 c 2.34752,-2.12219 5.18096,-3.22396 8.16462,-4.01026 12.18792,-2.55261 14.77038,-5.75866 17.81808,-8.93306 -1.04397,7.60193 -10.47277,16.12477 -25.9827,12.94332 z"
             id="path427" /><path
             style="fill:url(#linearGradient438);fill-opacity:1;stroke:none;stroke-width:0.264583;stroke-opacity:1"
             d="m 106.11602,125.42294 c 6.58033,2.52231 12.71627,1.44513 18.65856,-1.20067 -2.63768,5.66496 -12.38986,9.13356 -20.26747,3.55401 z"
             id="path428" /><path
             style="fill:url(#linearGradient439);fill-opacity:1;stroke:none;stroke-width:0.264583;stroke-opacity:1"
             d="m 102.34589,129.28913 c 1.81295,3.65677 5.55167,5.97237 10.95019,7.13204 10.18534,3.45672 10.79414,7.08862 10.66204,10.73407 -1.90772,-4.50399 -4.73912,-5.31328 -7.51626,-6.33959 -11.77,-3.07536 -15.89312,-6.03616 -14.09597,-11.52652 z"
             id="path429" /><path
             style="fill:url(#linearGradient440);stroke:none;stroke-width:0.264583;stroke-opacity:1"
             d="m 103.47453,137.14157 c 3.39378,1.65594 4.27135,2.45994 10.63802,4.39448 3.92167,1.7839 8.06936,3.16386 9.07713,9.84558 -1.6931,-2.95566 -4.12742,-5.14364 -7.6123,-6.24353 -9.39613,-3.93925 -9.95458,-5.45675 -12.10285,-7.99653 z"
             id="path430" /></g></g></g></g></svg>
